<?xml version="1.0" standalone="no"?>
<!DOCTYPE svg PUBLIC "-//W3C//DTD SVG 20010904//EN"
 "http://www.w3.org/TR/2001/REC-SVG-20010904/DTD/svg10.dtd">
<svg version="1.0" xmlns="http://www.w3.org/2000/svg"
 width="431.000000pt" height="339.000000pt" viewBox="0 0 431.000000 339.000000"
 preserveAspectRatio="xMidYMid meet">

<g transform="translate(0.000000,339.000000) scale(0.100000,-0.100000)"
fill="#000000" stroke="none">
<path d="M2525 3293 l-90 -55 -70 16 c-158 35 -214 41 -400 40 -212 -1 -299
-15 -491 -78 -470 -158 -852 -557 -989 -1035 -40 -137 -56 -246 -61 -390 l-3
-134 -69 -71 c-132 -135 -195 -260 -196 -386 -2 -175 103 -315 309 -415 332
-162 819 -205 1388 -124 424 60 880 214 1202 404 193 114 412 292 450 365 42
81 45 437 5 623 -70 328 -237 619 -487 851 l-53 49 0 -902 0 -902 -35 -15
c-70 -29 -287 -94 -296 -89 -5 4 -9 466 -9 1156 0 632 -3 1149 -7 1148 -5 0
-48 -25 -98 -56z m-245 -242 c0 -69 0 -69 -36 -91 -51 -30 -64 -21 -64 42 0
29 4 58 8 63 8 13 74 55 85 55 4 0 7 -31 7 -69z m250 -56 c0 -71 -1 -75 -27
-88 -72 -37 -73 -36 -73 47 l0 76 38 19 c59 32 62 30 62 -54z m-370 -185 c0
-57 -2 -61 -32 -80 -57 -35 -68 -28 -68 39 0 56 2 60 33 79 57 36 67 30 67
-38z m-324 -128 l99 -59 3 -847 2 -846 -162 2 -163 3 -3 938 -2 939 63 -36
c35 -19 108 -61 163 -94z m444 10 l0 -69 -41 -16 c-23 -9 -46 -14 -50 -11 -5
3 -9 32 -9 65 0 56 2 60 33 79 58 36 67 29 67 -48z m250 -77 c0 -82 0 -82 -75
-101 -25 -6 -25 -6 -25 70 l0 76 33 14 c63 28 67 24 67 -59z m-1280 -54 c0
-68 0 -69 -36 -90 -19 -12 -39 -21 -45 -21 -5 0 -9 29 -9 65 0 63 1 65 37 90
21 14 41 25 45 25 5 0 8 -31 8 -69z m250 -54 l0 -73 -45 -22 -45 -22 0 78 0
78 33 17 c54 27 57 24 57 -56z m-370 -182 c0 -63 -1 -66 -32 -85 -53 -32 -58
-28 -58 45 0 64 0 65 38 84 20 11 40 20 45 21 4 0 7 -29 7 -65z m1028 -22 c3
-68 -5 -81 -63 -90 l-36 -6 3 64 c3 62 4 64 38 81 19 9 40 16 45 14 6 -1 11
-30 13 -63z m-908 -97 c0 -72 -1 -74 -27 -84 -16 -5 -36 -13 -45 -17 -16 -6
-18 0 -18 64 l0 71 38 19 c20 11 40 20 45 21 4 0 7 -33 7 -74z m1150 -10 l0
-74 -41 -10 c-49 -12 -51 -9 -47 78 3 62 3 63 38 75 19 7 38 10 43 8 4 -2 7
-37 7 -77z m-900 -70 l0 -74 -40 -16 c-22 -9 -43 -16 -45 -16 -3 0 -5 35 -5
78 0 76 1 78 28 89 59 23 62 20 62 -61z m1030 -82 c0 -81 -1 -82 -60 -86 l-35
-3 0 75 0 74 40 12 c22 6 43 9 48 7 4 -2 7 -38 7 -79z m-250 -54 c0 -77 -3
-81 -62 -84 l-33 -1 0 65 0 65 35 12 c59 20 60 19 60 -57z m-1150 -174 c0 -70
-8 -82 -58 -92 l-32 -6 0 66 c0 65 1 66 33 80 54 24 57 22 57 -48z m248 -101
c2 -37 -1 -72 -5 -76 -4 -4 -27 -11 -51 -15 l-43 -7 3 73 3 73 35 13 c19 7 40
11 45 10 6 -1 11 -33 13 -71z m1147 -51 l0 -79 -48 -3 -48 -3 3 78 3 78 35 6
c19 3 40 5 45 4 6 -1 10 -36 10 -81z m-1025 -104 l0 -79 -37 -10 c-21 -6 -41
-11 -45 -11 -5 0 -8 35 -8 79 l0 78 33 11 c57 18 57 18 57 -68z m-250 -59 c0
-39 -3 -72 -8 -75 -4 -2 -24 -7 -45 -11 l-37 -7 0 71 0 70 33 10 c57 16 57 16
57 -58z m908 -53 c3 -64 2 -68 -22 -74 -13 -3 -35 -4 -47 -2 -22 3 -24 7 -24
68 0 64 0 65 30 71 56 13 60 9 63 -63z m122 -169 l0 -70 -47 3 -48 3 -3 54
c-4 75 0 81 53 81 l45 0 0 -71z m248 -88 l-3 -66 -45 0 -45 0 -3 67 -3 67 38
3 c62 5 64 3 61 -71z m-1400 2 l-3 -68 -42 -3 -43 -3 0 70 0 71 45 0 46 0 -3
-67z m370 -15 l-3 -83 -42 -3 -43 -3 0 80 0 80 33 4 c17 2 38 5 45 5 10 2 12
-18 10 -80z"/>
<path d="M4139 1866 c-14 -7 -60 -40 -102 -74 -42 -33 -89 -63 -104 -66 -15
-3 -67 -13 -115 -22 -49 -9 -88 -21 -88 -25 0 -5 8 -9 18 -9 30 0 93 -21 90
-30 -2 -5 -31 -32 -66 -59 -56 -45 -69 -51 -111 -51 -34 0 -53 -5 -65 -19 -23
-25 -10 -32 62 -34 51 -2 65 3 130 41 41 24 76 41 79 38 4 -3 -6 -42 -21 -86
-15 -43 -26 -85 -23 -92 9 -25 83 71 137 178 50 98 63 114 159 204 63 59 101
102 97 109 -10 15 -45 14 -77 -3z"/>
<path d="M3381 1169 c-191 -181 -418 -336 -698 -476 -368 -184 -716 -301
-1096 -369 -86 -15 -157 -31 -157 -35 0 -10 104 -44 208 -68 46 -11 147 -25
224 -32 494 -44 991 164 1312 549 83 101 168 232 217 337 35 75 72 166 66 165
-1 -1 -35 -32 -76 -71z"/>
</g>
</svg>
